<?xml version="1.0" encoding="UTF-8" standalone="no"?>
<!-- Generator: Adobe Illustrator 19.0.0, SVG Export Plug-In . SVG Version: 6.00 Build 0)  -->

<svg
   xmlns:dc="http://purl.org/dc/elements/1.1/"
   xmlns:cc="http://creativecommons.org/ns#"
   xmlns:rdf="http://www.w3.org/1999/02/22-rdf-syntax-ns#"
   xmlns:svg="http://www.w3.org/2000/svg"
   xmlns="http://www.w3.org/2000/svg"
   xmlns:sodipodi="http://sodipodi.sourceforge.net/DTD/sodipodi-0.dtd"
   xmlns:inkscape="http://www.inkscape.org/namespaces/inkscape"
   version="1.1"
   id="Capa_1"
   x="0px"
   y="0px"
   viewBox="0 0 58 58"
   style="enable-background:new 0 0 58 58;"
   xml:space="preserve"
   sodipodi:docname="remindme_error.svg"
   inkscape:version="0.92.2 5c3e80d, 2017-08-06"><metadata
     id="metadata53"><rdf:RDF><cc:Work
         rdf:about=""><dc:format>image/svg+xml</dc:format><dc:type
           rdf:resource="http://purl.org/dc/dcmitype/StillImage" /><dc:title></dc:title></cc:Work></rdf:RDF></metadata><defs
     id="defs51" /><sodipodi:namedview
     pagecolor="#ffffff"
     bordercolor="#666666"
     borderopacity="1"
     objecttolerance="10"
     gridtolerance="10"
     guidetolerance="10"
     inkscape:pageopacity="0"
     inkscape:pageshadow="2"
     inkscape:window-width="1920"
     inkscape:window-height="1006"
     id="namedview49"
     showgrid="false"
     inkscape:zoom="8.137931"
     inkscape:cx="-10.026675"
     inkscape:cy="32.606523"
     inkscape:window-x="0"
     inkscape:window-y="0"
     inkscape:window-maximized="1"
     inkscape:current-layer="Capa_1" /><polygon
     style="fill:#ffd5d5"
     points="6.5,58 51.5,58 51.5,14 37.5,0 6.5,0 "
     id="polygon2"
     transform="matrix(0.83133637,0,0,0.83133637,1.0963136,0.5529661)" /><polygon
     style="fill:#aa0000"
     points="37.5,14 51.5,14 37.5,0 "
     id="polygon4"
     transform="matrix(0.83133637,0,0,0.83133637,1.0963136,0.5529661)" /><path
     style="fill:#ff5555;stroke-width:0.83133638"
     d="M 35.596773,18.842366 H 22.295391 c -0.458897,0 -0.831337,-0.371607 -0.831337,-0.831337 0,-0.459728 0.37244,-0.831336 0.831337,-0.831336 h 13.301382 c 0.458897,0 0.831336,0.371608 0.831336,0.831336 0,0.45973 -0.372439,0.831337 -0.831336,0.831337 z"
     id="path6"
     inkscape:connector-curvature="0" /><path
     style="fill:#ff0000;stroke-width:0.83133638"
     d="m 15.6447,19.673703 c -0.213653,0 -0.427307,-0.0823 -0.588586,-0.243582 l -1.662673,-1.662674 c -0.325053,-0.325052 -0.325053,-0.850455 0,-1.175509 0.325053,-0.325052 0.850457,-0.325052 1.17551,0 l 1.136436,1.136437 3.575578,-2.860628 c 0.357475,-0.286811 0.882048,-0.228618 1.168028,0.129689 0.286811,0.359137 0.228618,0.882047 -0.129688,1.168858 l -4.156682,3.325345 c -0.151303,0.122208 -0.335029,0.182064 -0.517923,0.182064 z"
     id="path8"
     inkscape:connector-curvature="0" /><path
     style="fill:#ff5555;stroke-width:0.83133638"
     d="M 35.596773,27.987066 H 22.295391 c -0.458897,0 -0.831337,-0.371607 -0.831337,-0.831336 0,-0.45973 0.37244,-0.831337 0.831337,-0.831337 h 13.301382 c 0.458897,0 0.831336,0.371607 0.831336,0.831337 0,0.459729 -0.372439,0.831336 -0.831336,0.831336 z"
     id="path10"
     inkscape:connector-curvature="0" /><path
     style="fill:#ff0000;stroke-width:0.83133638"
     d="m 15.6447,28.818402 c -0.213653,0 -0.427307,-0.0823 -0.588586,-0.243581 l -1.662673,-1.662673 c -0.325053,-0.325052 -0.325053,-0.850457 0,-1.17551 0.325053,-0.325052 0.850457,-0.325052 1.17551,0 l 1.136436,1.136437 3.575578,-2.860629 c 0.357475,-0.286811 0.882048,-0.228616 1.168028,0.12969 0.286811,0.359136 0.228618,0.882047 -0.129688,1.168858 l -4.156682,3.325346 c -0.151303,0.122206 -0.335029,0.182062 -0.517923,0.182062 z"
     id="path12"
     inkscape:connector-curvature="0" /><path
     style="fill:#ff5555;stroke-width:0.83133638"
     d="M 35.596773,37.131767 H 22.295391 c -0.458897,0 -0.831337,-0.371608 -0.831337,-0.831337 0,-0.459729 0.37244,-0.831337 0.831337,-0.831337 h 13.301382 c 0.458897,0 0.831336,0.371608 0.831336,0.831337 0,0.459729 -0.372439,0.831337 -0.831336,0.831337 z"
     id="path14"
     inkscape:connector-curvature="0" /><path
     style="fill:#ff0000;stroke-width:0.83133638"
     d="m 15.6447,37.963103 c -0.213653,0 -0.427307,-0.0823 -0.588586,-0.243581 l -1.662673,-1.662674 c -0.325053,-0.325053 -0.325053,-0.850457 0,-1.175509 0.325053,-0.325053 0.850457,-0.325053 1.17551,0 l 1.136436,1.136436 3.575578,-2.860628 c 0.357475,-0.286811 0.882048,-0.228618 1.168028,0.129688 0.286811,0.359138 0.228618,0.882048 -0.129688,1.168859 l -4.156682,3.325345 c -0.151303,0.122207 -0.335029,0.182064 -0.517923,0.182064 z"
     id="path16"
     inkscape:connector-curvature="0" /><g
     id="g18"
     transform="matrix(0.96437507,0,0,0.96437507,0.23156204,0.5529661)" /><g
     id="g20"
     transform="matrix(0.96437507,0,0,0.96437507,0.23156204,0.5529661)" /><g
     id="g22"
     transform="matrix(0.96437507,0,0,0.96437507,0.23156204,0.5529661)" /><g
     id="g24"
     transform="matrix(0.96437507,0,0,0.96437507,0.23156204,0.5529661)" /><g
     id="g26"
     transform="matrix(0.96437507,0,0,0.96437507,0.23156204,0.5529661)" /><g
     id="g28"
     transform="matrix(0.96437507,0,0,0.96437507,0.23156204,0.5529661)" /><g
     id="g30"
     transform="matrix(0.96437507,0,0,0.96437507,0.23156204,0.5529661)" /><g
     id="g32"
     transform="matrix(0.96437507,0,0,0.96437507,0.23156204,0.5529661)" /><g
     id="g34"
     transform="matrix(0.96437507,0,0,0.96437507,0.23156204,0.5529661)" /><g
     id="g36"
     transform="matrix(0.96437507,0,0,0.96437507,0.23156204,0.5529661)" /><g
     id="g38"
     transform="matrix(0.96437507,0,0,0.96437507,0.23156204,0.5529661)" /><g
     id="g40"
     transform="matrix(0.96437507,0,0,0.96437507,0.23156204,0.5529661)" /><g
     id="g42"
     transform="matrix(0.96437507,0,0,0.96437507,0.23156204,0.5529661)" /><g
     id="g44"
     transform="matrix(0.96437507,0,0,0.96437507,0.23156204,0.5529661)" /><g
     id="g46"
     transform="matrix(0.96437507,0,0,0.96437507,0.23156204,0.5529661)" /><g
     id="g3818"
     transform="matrix(0.07520323,0,0,0.07520323,18.643523,20.072132)"
     style="fill:#550000"><path
       id="path3744"
       d="m 180.8,476 c 13.6,11.2 43.2,23.2 68.8,23.2 25.6,0 56,-11.2 68.8,-23.2 z"
       style="fill:#550000"
       inkscape:connector-curvature="0" /><path
       d="m 449.6,420 h -19.2 c 0,-8 -1.6,-4.8 -1.6,-6.4 0,-72 -51.2,0.8 -67.2,-172 v -31.2 c 0,-63.2 -48.8,-115.2 -112,-115.2 -63.2,0 -112,51.2 -112,115.2 v 31.2 c -16,173.6 -67.2,100 -67.2,172.8 0,1.6 -1.6,-1.6 -1.6,6.4 H 49.6 c -9.6,0 -16,4 -16,13.6 v 12 c 0,8.8 6.4,13.6 16,13.6 h 400 c 9.6,0 16,-4.8 16,-14.4 v -12 c 0,-9.6 -6.4,-13.6 -16,-13.6 z"
       style="fill:#550000"
       id="SVGCleanerId_0"
       inkscape:connector-curvature="0" /><g
       id="g3748"
       style="fill:#550000"><path
         d="m 449.6,420 h -19.2 c 0,-8 -1.6,-4.8 -1.6,-6.4 0,-72 -51.2,0.8 -67.2,-172 v -31.2 c 0,-63.2 -48.8,-115.2 -112,-115.2 -63.2,0 -112,51.2 -112,115.2 v 31.2 c -16,173.6 -67.2,100 -67.2,172.8 0,1.6 -1.6,-1.6 -1.6,6.4 H 49.6 c -9.6,0 -16,4 -16,13.6 v 12 c 0,8.8 6.4,13.6 16,13.6 h 400 c 9.6,0 16,-4.8 16,-14.4 v -12 c 0,-9.6 -6.4,-13.6 -16,-13.6 z"
         style="fill:#550000"
         id="SVGCleanerId_0_1_"
         inkscape:connector-curvature="0" /></g><path
       id="path3750"
       d="M 249.6,118.4 C 216.8,118.4 190.4,92 190.4,59.2 190.4,26.4 216.8,0 249.6,0 c 32.8,0 59.2,26.4 59.2,59.2 0,32.8 -26.4,59.2 -59.2,59.2 z m 0,-94.4 c -19.2,0 -35.2,16 -35.2,35.2 0,19.2 16,35.2 35.2,35.2 19.2,0 35.2,-16 35.2,-35.2 C 284.8,40 268.8,24 249.6,24 Z"
       style="fill:#550000"
       inkscape:connector-curvature="0" /><g
       id="g3756"
       style="fill:#550000"><path
         id="path3752"
         d="m 137.6,241.6 c -16,134.4 -44.8,119.2 -60,140 116,-6.4 202.4,-92.8 207.2,-198.4 1.6,-29.6 1.6,-57.6 0,-83.2 -11.2,-3.2 -21.6,-5.6 -33.6,-5.6 -63.2,0 -113.6,51.2 -113.6,115.2 z"
         style="fill:#550000"
         inkscape:connector-curvature="0" /><path
         id="path3754"
         d="M 307.2,47.2 C 301.6,20 277.6,0 249.6,0 c -32.8,0 -59.2,26.4 -59.2,59.2 0,24.8 15.2,45.6 36,54.4 38.4,-4 69.6,-30.4 80.8,-66.4 z M 249.6,24 c 19.2,0 35.2,16 35.2,35.2 0,19.2 -16,35.2 -35.2,35.2 -19.2,0 -35.2,-16 -35.2,-35.2 0,-19.2 16,-35.2 35.2,-35.2 z"
         style="fill:#550000"
         inkscape:connector-curvature="0" /></g><g
       id="g3758"
       style="fill:#550000" /><g
       id="g3760"
       style="fill:#550000" /><g
       id="g3762"
       style="fill:#550000" /><g
       id="g3764"
       style="fill:#550000" /><g
       id="g3766"
       style="fill:#550000" /><g
       id="g3768"
       style="fill:#550000" /><g
       id="g3770"
       style="fill:#550000" /><g
       id="g3772"
       style="fill:#550000" /><g
       id="g3774"
       style="fill:#550000" /><g
       id="g3776"
       style="fill:#550000" /><g
       id="g3778"
       style="fill:#550000" /><g
       id="g3780"
       style="fill:#550000" /><g
       id="g3782"
       style="fill:#550000" /><g
       id="g3784"
       style="fill:#550000" /><g
       id="g3786"
       style="fill:#550000" /></g></svg>