<?xml version="1.0" encoding="iso-8859-1"?>
<!-- Generator: Adobe Illustrator 19.0.0, SVG Export Plug-In . SVG Version: 6.00 Build 0)  -->
<svg version="1.1" id="Layer_1" xmlns="http://www.w3.org/2000/svg" xmlns:xlink="http://www.w3.org/1999/xlink" x="0px" y="0px"
	 viewBox="0 0 499.2 499.2" style="enable-background:new 0 0 499.2 499.2;" xml:space="preserve">
<path style="fill:#FF7900;" d="M180.8,476c13.6,11.2,43.2,23.2,68.8,23.2s56-11.2,68.8-23.2H180.8z"/>
<path id="SVGCleanerId_0" style="fill:#FFB000;" d="M449.6,420h-19.2c0-8-1.6-4.8-1.6-6.4c0-72-51.2,0.8-67.2-172v-31.2
	c0-63.2-48.8-115.2-112-115.2s-112,51.2-112,115.2v31.2c-16,173.6-67.2,100-67.2,172.8c0,1.6-1.6-1.6-1.6,6.4H49.6
	c-9.6,0-16,4-16,13.6v12c0,8.8,6.4,13.6,16,13.6h400c9.6,0,16-4.8,16-14.4v-12C465.6,424,459.2,420,449.6,420z"/>
<g>
	<path id="SVGCleanerId_0_1_" style="fill:#FFB000;" d="M449.6,420h-19.2c0-8-1.6-4.8-1.6-6.4c0-72-51.2,0.8-67.2-172v-31.2
		c0-63.2-48.8-115.2-112-115.2s-112,51.2-112,115.2v31.2c-16,173.6-67.2,100-67.2,172.8c0,1.6-1.6-1.6-1.6,6.4H49.6
		c-9.6,0-16,4-16,13.6v12c0,8.8,6.4,13.6,16,13.6h400c9.6,0,16-4.8,16-14.4v-12C465.6,424,459.2,420,449.6,420z"/>
</g>
<path style="fill:#FFB000;" d="M249.6,118.4c-32.8,0-59.2-26.4-59.2-59.2S216.8,0,249.6,0s59.2,26.4,59.2,59.2
	S282.4,118.4,249.6,118.4z M249.6,24c-19.2,0-35.2,16-35.2,35.2s16,35.2,35.2,35.2s35.2-16,35.2-35.2S268.8,24,249.6,24z"/>
<g>
	<path style="fill:#FFC200;" d="M137.6,241.6c-16,134.4-44.8,119.2-60,140c116-6.4,202.4-92.8,207.2-198.4c1.6-29.6,1.6-57.6,0-83.2
		c-11.2-3.2-21.6-5.6-33.6-5.6c-63.2,0-113.6,51.2-113.6,115.2V241.6z"/>
	<path style="fill:#FFC200;" d="M307.2,47.2C301.6,20,277.6,0,249.6,0c-32.8,0-59.2,26.4-59.2,59.2c0,24.8,15.2,45.6,36,54.4
		C264.8,109.6,296,83.2,307.2,47.2z M249.6,24c19.2,0,35.2,16,35.2,35.2s-16,35.2-35.2,35.2s-35.2-16-35.2-35.2S230.4,24,249.6,24z"
		/>
</g>
<g>
</g>
<g>
</g>
<g>
</g>
<g>
</g>
<g>
</g>
<g>
</g>
<g>
</g>
<g>
</g>
<g>
</g>
<g>
</g>
<g>
</g>
<g>
</g>
<g>
</g>
<g>
</g>
<g>
</g>
</svg>
